<?xml version="1.0" standalone="no"?>
<!DOCTYPE svg PUBLIC "-//W3C//DTD SVG 20010904//EN"
 "http://www.w3.org/TR/2001/REC-SVG-20010904/DTD/svg10.dtd">
<svg version="1.0" xmlns="http://www.w3.org/2000/svg"
 width="400.000000pt" height="400.000000pt" viewBox="0 0 400.000000 400.000000"
 preserveAspectRatio="xMidYMid meet">
<metadata>
Created by potrace 1.11, written by Peter Selinger 2001-2013
</metadata>
<g transform="translate(0.000000,400.000000) scale(0.100000,-0.100000)"
fill="#000000" stroke="none">
<path d="M0 2000 l0 -2000 2000 0 2000 0 0 2000 0 2000 -2000 0 -2000 0 0
-2000z m2245 1055 c119 -21 256 -68 326 -111 72 -43 150 -128 182 -197 64
-137 63 -319 -4 -466 -62 -137 -157 -226 -333 -312 -55 -27 -101 -51 -103 -53
-3 -2 26 -14 64 -26 37 -13 87 -34 109 -47 59 -33 142 -120 171 -176 13 -27
71 -192 129 -367 129 -391 148 -423 263 -437 l51 -6 0 -52 0 -53 -77 -11
c-241 -36 -351 -23 -424 50 -61 61 -91 136 -189 473 -50 169 -101 328 -114
355 -69 135 -155 178 -393 196 -100 8 -95 4 -108 78 -4 27 -2 37 7 37 7 0 56
7 108 15 319 48 460 176 491 443 30 260 -100 445 -357 509 -44 11 -112 17
-190 17 -106 1 -125 -1 -143 -18 l-21 -19 0 -1042 c0 -842 -3 -1045 -13 -1059
-17 -23 -72 -33 -216 -42 -104 -7 -115 -6 -127 11 -12 16 -14 196 -14 1032 0
1110 2 1066 -59 1097 -19 10 -56 16 -104 16 l-74 0 -7 51 c-4 28 -5 53 -3 56
12 12 363 59 577 77 113 10 508 -3 595 -19z"/>
</g>
</svg>
